<?xml version="1.0" encoding="UTF-8" standalone="no"?>
<svg
   xml:space="preserve"
   width="24"
   height="24"
   viewBox="0 0 24 24"
   version="1.1"
   id="svg11"
   sodipodi:docname="bigamemode.svg"
   inkscape:version="1.4.3 (0d15f75042, 2025-12-25)"
   xmlns:inkscape="http://www.inkscape.org/namespaces/inkscape"
   xmlns:sodipodi="http://sodipodi.sourceforge.net/DTD/sodipodi-0.dtd"
   xmlns:xlink="http://www.w3.org/1999/xlink"
   xmlns="http://www.w3.org/2000/svg"
   xmlns:svg="http://www.w3.org/2000/svg"><sodipodi:namedview
     id="namedview11"
     pagecolor="#ffffff"
     bordercolor="#000000"
     borderopacity="0.25"
     inkscape:showpageshadow="2"
     inkscape:pageopacity="0.0"
     inkscape:pagecheckerboard="0"
     inkscape:deskcolor="#d1d1d1"
     inkscape:zoom="6.0572917"
     inkscape:cx="-43.83147"
     inkscape:cy="3.0541702"
     inkscape:window-width="3440"
     inkscape:window-height="1372"
     inkscape:window-x="0"
     inkscape:window-y="0"
     inkscape:window-maximized="1"
     inkscape:current-layer="svg11" /><defs
     id="defs9"><linearGradient
       id="a"
       x1=".05"
       x2="1"
       y2="1"
       gradientTransform="matrix(22 0 0 22 -56.75 -22.125)"
       gradientUnits="userSpaceOnUse"><stop
         offset="0.205"
         stop-color="#7e0000"
         style="stop-color:#2c91c9;stop-opacity:1;"
         id="stop1" /><stop
         offset="0.205"
         stop-color="#ae0003"
         style="stop-color:#2f2f2f;stop-opacity:1;"
         id="stop2" /><stop
         offset="1"
         stop-color="#7e0002"
         style="stop-color:#131313;stop-opacity:1;"
         id="stop3" /></linearGradient><linearGradient
       id="c"
       x1="123.3"
       x2="8.261"
       y1="120.17"
       y2="13.466"
       gradientTransform="translate(53.824 2.949)scale(.18333)"
       gradientUnits="userSpaceOnUse"><stop
         offset="0"
         stop-color="#0257a9"
         id="stop4" /><stop
         offset="1"
         stop-color="#4c92d6"
         id="stop5" /></linearGradient><linearGradient
       xlink:href="#a"
       id="e"
       x1=".05"
       x2="1"
       y2="1"
       gradientTransform="scale(22)"
       gradientUnits="userSpaceOnUse" /><linearGradient
       id="f"
       x1="8.626"
       x2="11.245"
       y1="9.359"
       y2="7.15"
       gradientTransform="matrix(0.76977,0,0,0.76977,82.367,6.297)"
       gradientUnits="userSpaceOnUse"><stop
         offset="0"
         stop-color="#cbc900"
         id="stop6" /><stop
         offset="1"
         stop-color="#f4ed12"
         id="stop7" /></linearGradient><linearGradient
       id="g"
       x1="6.983"
       x2="17.978"
       y1="16.954"
       y2="10.606"
       gradientTransform="matrix(0.76977,0,0,0.76977,82.367,6.297)"
       gradientUnits="userSpaceOnUse"><stop
         offset="0"
         stop-color="#84faa1"
         id="stop8" /><stop
         offset="1"
         stop-color="#33c478"
         id="stop9" /></linearGradient><linearGradient
       x1="0"
       y1="0"
       x2="1"
       y2="0"
       gradientUnits="userSpaceOnUse"
       gradientTransform="matrix(1.6570861,0,0,1.6570861,31.380303,12.96638)"
       spreadMethod="pad"
       id="linearGradient10"><stop
         style="stop-opacity:1;stop-color:#2e86c8"
         offset="0"
         id="stop9-3" /><stop
         style="stop-opacity:1;stop-color:#14bccd"
         offset="1"
         id="stop10" /></linearGradient><style
       id="current-color-scheme"
       type="text/css">
   .ColorScheme-Text { color:#dfdfdf; }
  </style><linearGradient
       id="linearGradient77"
       x1=".05"
       x2="1"
       y2="1"
       gradientTransform="matrix(22,0,0,22,-56.75,-22.125)"
       gradientUnits="userSpaceOnUse"><stop
         stop-color="#7e0000"
         offset="0.2"
         id="stop75"
         style="stop-color:#1a2973;stop-opacity:1;" /><stop
         stop-color="#ae0003"
         offset="0.205"
         id="stop76"
         style="stop-color:#273ead;stop-opacity:1;" /><stop
         stop-color="#7e0002"
         offset="1"
         id="stop77"
         style="stop-color:#2945c4;stop-opacity:1;" /></linearGradient><linearGradient
       id="linearGradient71"
       x1="0.050000001"
       x2="1"
       y1="0"
       y2="1"
       gradientTransform="matrix(22,0,0,22,148.25,3.3011262)"
       gradientUnits="userSpaceOnUse"
       spreadMethod="pad"><stop
         style="stop-color:#f9f9f9;stop-opacity:0.50196081;"
         offset="0.2"
         id="stop69" /><stop
         style="stop-color:#ba9060;stop-opacity:1;"
         offset="0.205"
         id="stop70" /><stop
         style="stop-color:#6a3c19;stop-opacity:1;"
         offset="1"
         id="stop71" /></linearGradient><linearGradient
       id="linearGradient67"
       x1="0.050000001"
       x2="1"
       y1="0"
       y2="1"
       gradientTransform="matrix(22,0,0,22,148.25,3.3011262)"
       gradientUnits="userSpaceOnUse"
       spreadMethod="pad"><stop
         style="stop-color:#b4f1fb;stop-opacity:1;"
         offset="0"
         id="stop65" /><stop
         style="stop-color:#80c5ef;stop-opacity:1;"
         offset="0.205"
         id="stop66" /><stop
         style="stop-color:#7668fe;stop-opacity:1;"
         offset="0.60250002"
         id="stop68" /><stop
         style="stop-color:#1d40bb;stop-opacity:1;"
         offset="1"
         id="stop67" /></linearGradient><linearGradient
       id="linearGradient64"
       x1="0.050000001"
       x2="1"
       y1="0"
       y2="1"
       gradientTransform="matrix(22,0,0,22,148.25,3.3011262)"
       gradientUnits="userSpaceOnUse"
       spreadMethod="pad"><stop
         style="stop-color:#55199d;stop-opacity:1;"
         offset="0.2"
         id="stop62" /><stop
         style="stop-color:#ba9060;stop-opacity:1;"
         offset="0.205"
         id="stop63" /><stop
         style="stop-color:#6a3c19;stop-opacity:1;"
         offset="1"
         id="stop64" /></linearGradient><linearGradient
       id="linearGradient61"
       x1="0.050000001"
       x2="1"
       y1="0"
       y2="1"
       gradientTransform="matrix(22,0,0,22,148.25,3.3011262)"
       gradientUnits="userSpaceOnUse"
       spreadMethod="pad"><stop
         style="stop-color:#43127b;stop-opacity:1;"
         offset="0.2"
         id="stop59" /><stop
         style="stop-color:#ba9060;stop-opacity:1;"
         offset="0.205"
         id="stop60" /><stop
         style="stop-color:#6a3c19;stop-opacity:1;"
         offset="1"
         id="stop61" /></linearGradient><linearGradient
       id="linearGradient58"
       x1=".05"
       x2="1"
       y1="0"
       y2="1"
       gradientTransform="matrix(22,0,0,22,148.25,3.3011262)"
       gradientUnits="userSpaceOnUse"><stop
         style="stop-color:#411178;stop-opacity:1;"
         offset="0.2"
         id="stop56" /><stop
         style="stop-color:#ba9060;stop-opacity:1;"
         offset="0.205"
         id="stop57" /><stop
         style="stop-color:#6a3c19;stop-opacity:1;"
         offset="1"
         id="stop58" /></linearGradient><linearGradient
       id="linearGradient53"
       x1=".05"
       x2="1"
       y2="1"
       gradientTransform="matrix(22,0,0,22,-55.75,5.375)"
       gradientUnits="userSpaceOnUse"><stop
         stop-color="#2191d3"
         offset=".2"
         id="stop51" /><stop
         stop-color="#2ac2f0"
         offset=".205"
         id="stop52" /><stop
         stop-color="#0948bd"
         offset="1"
         id="stop53"
         style="stop-color:#fafafa;stop-opacity:0.80000001;" /></linearGradient><style
       id="style11382">.cls-1{fill:#069;}.cls-2{fill:#2991c9;}.cls-3{fill:#fff;}.cls-4{fill:#002a44;}.cls-5{fill:#3380cc;}.cls-6{fill:#cc5e55;}</style><radialGradient
       id="paint0_radial_29_23"
       cx="0"
       cy="0"
       r="1"
       gradientUnits="userSpaceOnUse"
       gradientTransform="matrix(0,22,-22,0,11.999988,1.0000149)"><stop
         stop-color="#8FC8FF"
         id="stop11537" /><stop
         offset="1"
         stop-color="#0056A8"
         id="stop11539"
         style="stop-color:#006699;stop-opacity:1;" /></radialGradient><radialGradient
       id="paint0_radial_1_40"
       cx="0"
       cy="0"
       r="1"
       gradientUnits="userSpaceOnUse"
       gradientTransform="matrix(0,24,-24,0,-2.29062,44.73684)"><stop
         stop-color="#C2E5FF"
         id="stop11601" /><stop
         offset="1"
         stop-color="#3276AA"
         id="stop11603" /></radialGradient><radialGradient
       fx="0"
       fy="0"
       cx="0"
       cy="0"
       r="1"
       gradientUnits="userSpaceOnUse"
       gradientTransform="matrix(0,16.5,-16.5,0,8.999991,0.750011)"
       spreadMethod="pad"
       id="radialGradient16463"><stop
         style="stop-opacity:1;stop-color:#8fc8ff"
         offset="0"
         id="stop16459" /><stop
         style="stop-opacity:1;stop-color:#006699"
         offset="1"
         id="stop16461" /></radialGradient><clipPath
       clipPathUnits="userSpaceOnUse"
       id="clipPath16473"><path
         d="M 0,0 H 151 V 116 H 0 Z"
         id="path16471" /></clipPath><radialGradient
       fx="0"
       fy="0"
       cx="0"
       cy="0"
       r="1"
       gradientUnits="userSpaceOnUse"
       gradientTransform="matrix(0,16.5,-16.5,0,8.999991,0.750011)"
       spreadMethod="pad"
       id="radialGradient16463-5"><stop
         style="stop-opacity:1;stop-color:#8fc8ff"
         offset="0"
         id="stop16459-9" /><stop
         style="stop-opacity:1;stop-color:#006699"
         offset="1"
         id="stop16461-4" /></radialGradient><clipPath
       clipPathUnits="userSpaceOnUse"
       id="clipPath16473-9"><path
         d="M 0,0 H 151 V 116 H 0 Z"
         id="path16471-0" /></clipPath><style
       id="style1">.cls-1{fill:#16171c;stroke:#000;stroke-miterlimit:10;}.cls-2{fill:#2c2d3d;}.cls-3{fill:url(#linear-gradient);}.cls-4{fill:url(#linear-gradient-2);}.cls-5{fill:url(#linear-gradient-3);}</style><linearGradient
       id="linear-gradient"
       x1="70.74"
       y1="207.69"
       x2="304.39"
       y2="456.44"
       gradientTransform="matrix(1, 0, 0, -1, 16.81, 529.63)"
       gradientUnits="userSpaceOnUse"><stop
         offset="0"
         stop-color="#2d85c6"
         id="stop1-9" /><stop
         offset="1"
         stop-color="#04bacc"
         id="stop2-1" /></linearGradient><linearGradient
       id="linear-gradient-2"
       x1="146.39"
       y1="136.63"
       x2="380.04"
       y2="385.38"
       xlink:href="#linear-gradient" /><linearGradient
       id="linear-gradient-3"
       x1="127.32"
       y1="154.54"
       x2="360.97"
       y2="403.29"
       xlink:href="#linear-gradient" /><linearGradient
       id="a-27"
       x1="123.3"
       x2="8.2605"
       y1="120.17"
       y2="13.466"
       gradientTransform="matrix(0.18333,0,0,0.18333,53.823536,2.948851)"
       gradientUnits="userSpaceOnUse"><stop
         stop-color="#0257a9"
         offset="0"
         id="stop1-3" /><stop
         stop-color="#4c92d6"
         offset="1"
         id="stop2-6" /></linearGradient><style
       id="style2">.cls-1{stroke:#333;stroke-miterlimit:10;stroke-width:6px;fill:url(#linear-gradient);}.cls-2{fill:url(#linear-gradient-2);}.cls-3{fill:#0d0e0e;}.cls-4{opacity:0.7;isolation:isolate;fill:url(#linear-gradient-3);}</style><linearGradient
       id="linear-gradient-35"
       x1="100.05"
       y1="164.11"
       x2="100.05"
       y2="3.23"
       gradientUnits="userSpaceOnUse"><stop
         offset="0"
         id="stop4-6" /><stop
         offset="0.6"
         stop-color="#fff"
         id="stop6-0" /><stop
         offset="0.66"
         stop-color="#fff"
         id="stop8-9" /><stop
         offset="0.7"
         stop-color="#fafafa"
         id="stop10-3" /><stop
         offset="0.74"
         stop-color="#ececec"
         id="stop12" /><stop
         offset="0.78"
         stop-color="#d5d5d5"
         id="stop14" /><stop
         offset="0.83"
         stop-color="#b4b4b4"
         id="stop16" /><stop
         offset="0.88"
         stop-color="#8a8a8a"
         id="stop18" /><stop
         offset="0.93"
         stop-color="#575757"
         id="stop20" /><stop
         offset="0.98"
         stop-color="#1b1b1b"
         id="stop22" /><stop
         offset="1"
         id="stop24" /></linearGradient><linearGradient
       id="linear-gradient-2-2"
       x1="106.56"
       y1="83.76"
       x2="195.62"
       y2="83.76"
       gradientUnits="userSpaceOnUse"><stop
         offset="0"
         id="stop27" /><stop
         offset="1"
         stop-color="#fff"
         id="stop29" /></linearGradient><linearGradient
       id="linear-gradient-3-9"
       x1="100.54"
       y1="86.27"
       x2="100.54"
       y2="5.83"
       gradientUnits="userSpaceOnUse"><stop
         offset="0"
         stop-color="#fff"
         stop-opacity="0.6"
         id="stop32" /><stop
         offset="1"
         stop-color="#fff"
         stop-opacity="0"
         id="stop34" /></linearGradient><linearGradient
       id="a-1"
       x1=".05"
       x2="1"
       y2="1"
       gradientTransform="matrix(22,0,0,22,25.25,-0.62500002)"
       gradientUnits="userSpaceOnUse"><stop
         stop-color="#c0d1cd"
         offset="0.2"
         id="stop1-2"
         style="stop-color:#4389d0;stop-opacity:0.90196079;" /><stop
         offset=".205"
         id="stop2-7" /><stop
         stop-color="#454545"
         offset="1"
         id="stop3-0"
         style="stop-color:#3c62df;stop-opacity:1;" /></linearGradient><linearGradient
       id="linearGradient9"
       x1="2.0339"
       x2="21.999"
       y1="17.905"
       y2="17.905"
       gradientTransform="translate(25.25,-0.55472202)"
       gradientUnits="userSpaceOnUse"><stop
         stop-color="#c0d1cd"
         offset="0"
         id="stop4-9" /><stop
         stop-color="#f5f6ec"
         offset="1"
         id="stop5-6" /></linearGradient><linearGradient
       id="a-2"
       x1=".05"
       x2="1"
       y2="1"
       gradientTransform="matrix(22,0,0,22,-55.75,5.375)"
       gradientUnits="userSpaceOnUse"><stop
         stop-color="#2191d3"
         offset=".2"
         id="stop8-8" /><stop
         stop-color="#2ac2f0"
         offset=".205"
         id="stop9-0" /><stop
         stop-color="#0948bd"
         offset="1"
         id="stop10-9" /></linearGradient><linearGradient
       id="a-3"
       x1=".05"
       x2="1"
       y2="1"
       gradientTransform="matrix(22,0,0,22,-56.75,-22.125)"
       gradientUnits="userSpaceOnUse"><stop
         stop-color="#7e0000"
         offset="0.2"
         id="stop2-61"
         style="stop-color:#0d0d54;stop-opacity:1;" /><stop
         stop-color="#ae0003"
         offset="0.205"
         id="stop3-2"
         style="stop-color:#6437f2;stop-opacity:1;" /><stop
         stop-color="#7e0002"
         offset="1"
         id="stop4-93"
         style="stop-color:#8b47ff;stop-opacity:1;" /></linearGradient><linearGradient
       id="a-30"
       x1=".05"
       x2="1"
       y1="0"
       y2="1"
       gradientTransform="matrix(22,0,0,22,148.25,3.3011262)"
       gradientUnits="userSpaceOnUse"
       xlink:href="#linearGradient64"><stop
         style="stop-color:#f25edf;stop-opacity:1;"
         offset="0"
         id="stop1-30" /><stop
         style="stop-color:#8c2df9;stop-opacity:1;"
         offset="0.38993961"
         id="stop2-9" /><stop
         style="stop-color:#43127b;stop-opacity:1;"
         offset="1"
         id="stop3-25" /></linearGradient><linearGradient
       id="linearGradient148"
       x1="93.251526"
       y1="104.3218"
       x2="-67.822433"
       y2="-104.28946"
       spreadMethod="pad"
       gradientUnits="userSpaceOnUse"
       gradientTransform="matrix(0.03254379,0,0,0.03260219,4.2278406,4.232806)"><stop
         id="stop146"
         offset="0"
         stop-color="#093b8e"
         style="stop-color:#300b58;stop-opacity:1;" /><stop
         id="stop147"
         offset="0.5"
         stop-color="#093b8e"
         style="stop-color:#872bfa;stop-opacity:1;" /><stop
         id="stop148"
         offset="1"
         stop-color="#71f6b8"
         style="stop-color:#ff64dc;stop-opacity:1;" /></linearGradient><linearGradient
       id="linearGradient191"
       x1="93.251526"
       y1="104.3218"
       x2="-67.822433"
       y2="-104.28946"
       spreadMethod="pad"
       gradientUnits="userSpaceOnUse"
       gradientTransform="matrix(0.03254379,0,0,0.03260219,4.2278406,4.232806)"><stop
         id="stop189"
         offset="0"
         stop-color="#093b8e"
         style="stop-color:#0938ac;stop-opacity:1;" /><stop
         id="stop190"
         offset="0.5"
         stop-color="#093b8e"
         style="stop-color:#7562ff;stop-opacity:1;" /><stop
         id="stop191"
         offset="1"
         stop-color="#71f6b8"
         style="stop-color:#86fae6;stop-opacity:1;" /></linearGradient><linearGradient
       id="a-0"
       x1=".05"
       x2="1"
       y2="1"
       gradientTransform="matrix(22,0,0,22,224,4)"
       gradientUnits="userSpaceOnUse"><stop
         stop-color="#8f8f8f"
         offset=".2"
         id="stop1-5" /><stop
         stop-color="#fff"
         offset=".205"
         id="stop2-94" /><stop
         stop-color="#dadada"
         offset="1"
         id="stop3-6" /></linearGradient><linearGradient
       id="a-36"
       gradientTransform="matrix(33,0,0,33,18,31)"
       gradientUnits="userSpaceOnUse"><stop
         stop-color="#85C1EA"
         id="stop2-75" /><stop
         offset="1"
         stop-color="#3C90C9"
         id="stop3-62" /></linearGradient><style
       id="current-color-scheme-61"
       type="text/css">
   .ColorScheme-Text { color:#dfdfdf; } .ColorScheme-Highlight { color:#4285f4; } .ColorScheme-NeutralText { color:#ff9800; } .ColorScheme-PositiveText { color:#4caf50; } .ColorScheme-NegativeText { color:#f44336; }
  </style><style
       id="current-color-scheme-6"
       type="text/css">.ColorScheme-Text { color:#dfdfdf; } .ColorScheme-Highlight { color:#4285f4; } .ColorScheme-NeutralText { color:#ff9800; } .ColorScheme-PositiveText { color:#4caf50; } .ColorScheme-NegativeText { color:#f44336; }</style><style
       id="current-color-scheme-9"
       type="text/css">
   .ColorScheme-Text { color:#444444; } .ColorScheme-Highlight { color:#4285f4; } .ColorScheme-NeutralText { color:#ff9800; } .ColorScheme-PositiveText { color:#4caf50; } .ColorScheme-NegativeText { color:#f44336; }
  </style><linearGradient
       inkscape:collect="always"
       xlink:href="#linearGradient10"
       id="linearGradient45"
       gradientUnits="userSpaceOnUse"
       gradientTransform="matrix(8.3189769,0,0,8.3189769,7.857032,6.7601289)"
       x1="0"
       y1="0"
       x2="1"
       y2="0"
       spreadMethod="pad" /></defs><rect
     width="22"
     height="22"
     x="1"
     y="1"
     fill="url(#c)"
     stroke="gray"
     stroke-opacity=".2"
     opacity=".9"
     rx="6.6"
     style="fill:url(#e);-inkscape-stroke:hairline"
     vector-effect="non-scaling-stroke"
     id="rect9" /><g
     id="g44"><path
       id="path38"
       d="m 12.10097,18.470469 -8.196826,-4.13054 8.196826,-4.062583 8.172402,4.09658 z"
       style="fill:#2c91c9;fill-opacity:1;fill-rule:nonzero;stroke:none;stroke-width:0.0440976" /><path
       id="path39"
       d="M 12.10097,19.74532 3.904144,15.563804 v -1.223891 l 8.196826,4.130544 8.172402,-4.096543 v 1.223887 z"
       style="fill:#00679a;fill-opacity:1;fill-rule:nonzero;stroke:none;stroke-width:0.0440976" /><path
       id="path40"
       d="m 3.904124,17.926528 v -2.36275 l 8.196831,4.181561 8.172443,-4.147564 v 2.311776 l -8.18466,4.096543 z"
       style="fill:#36464f;fill-opacity:1;fill-rule:nonzero;stroke:none;stroke-width:0.0440976" /><path
       id="path41"
       d="m 15.667394,14.285605 c 0,1.053229 -1.602201,1.907048 -3.578659,1.907048 -1.976413,0 -3.578614,-0.853819 -3.578614,-1.907048 0,-1.053227 1.602201,-1.907048 3.578614,-1.907048 1.976458,0 3.578659,0.853821 3.578659,1.907048"
       style="fill:#2a2b2a;fill-opacity:1;fill-rule:nonzero;stroke:none;stroke-width:0.0440976" /><path
       id="path42"
       d="m 7.976913,14.478706 c 0,0.321154 -0.539623,0.581515 -1.20532,0.581515 -0.665658,0 -1.205277,-0.260352 -1.205277,-0.581515 0,-0.321155 0.539619,-0.581518 1.205277,-0.581518 0.665697,0 1.20532,0.26035 1.20532,0.581518"
       style="fill:#b11f24;fill-opacity:1;fill-rule:nonzero;stroke:none;stroke-width:0.0440976" /><path
       id="path43"
       d="m 7.976906,14.478719 h -2.4106 v -0.648943 h 2.4106 z"
       style="fill:#b11f24;fill-opacity:1;fill-rule:nonzero;stroke:none;stroke-width:0.0440976" /><path
       id="path44"
       d="m 7.976913,13.843016 c 0,0.321152 -0.539623,0.581514 -1.20532,0.581514 -0.665658,0 -1.205277,-0.260351 -1.205277,-0.581514 0,-0.321155 0.539619,-0.581519 1.205277,-0.581519 0.665697,0 1.20532,0.260351 1.20532,0.581519"
       style="fill:#e81d27;fill-opacity:1;fill-rule:nonzero;stroke:none;stroke-width:0.0440976" /></g><path
     id="path19"
     style="fill:#afbdc3;fill-opacity:1;fill-rule:nonzero;stroke:none;stroke-width:0.0399682"
     d="m 12.015625,2.6015625 c -2.297182,0 -4.158203,1.8610193 -4.158203,4.1582031 0,2.1227027 1.588794,3.8749364 3.642578,4.1289064 v 3.539062 h 0.0039 c 0.03175,0.14088 0.278257,0.251953 0.578125,0.251954 0.299807,0 0.546503,-0.111077 0.578125,-0.251954 h 0.01758 v -3.560546 c 1.982876,-0.317041 3.498047,-2.0353536 3.498047,-4.1074224 0,-2.2971838 -1.862903,-4.1582031 -4.160156,-4.1582031 z m 2.335937,1.4628906 c 1.234,0 1.337891,1.6503907 1.337891,1.6503907 0,-10e-8 -0.46225,-1.2482813 -1.40625,-0.7382813 -0.95,0.509 -0.879375,1.4517188 -0.859375,1.7617187 0.02,0.3110001 0.195313,0.1875 0.195313,0.1875 h 0.0019 l 0.0039,-0.00195 c 0.028,-0.012 0.15325,-0.093672 0.65625,-0.6386719 0.621,-0.6709998 0.933594,-0.5917968 0.933594,-0.5917968 0,0 0.70864,0.067969 0.68164,1.1679687 -0.027,1.1 -0.451172,1.5625 -0.451172,1.5625 0.194001,-2.864 -1.012312,-1.3587812 -1.070312,-1.3007812 -0.058,0.058 -0.398187,0.4278906 -0.992188,0.087891 -0.712999,-0.387 -0.71289,-1.1503906 -0.71289,-1.1503906 0,0 -0.06108,-1.7256563 1.419922,-1.9726563 0.092,-0.016 0.179049,-0.023437 0.261718,-0.023437 z m -2.673828,0.7148438 v 0.00195 c 0.296,-0.003 0.535938,0.1471406 0.585938,0.3691406 0.058,0.272 -0.186828,0.5557658 -0.548828,0.6347656 -0.364,0.078 -0.705672,-0.077609 -0.763672,-0.3496093 -0.059,-0.273 0.188734,-0.5558125 0.552734,-0.6328125 0.05724,-0.01242 0.115298,-0.021218 0.173828,-0.023437 z M 8.554687,4.9941406 c -0.192,2.861 1.00836,1.3578282 1.06836,1.2988282 0.059,-0.059 0.399187,-0.4278907 0.992187,-0.087891 0.714,0.385 0.712891,1.1503906 0.712891,1.1503907 0,0 0.06008,1.7237031 -1.419922,1.9707031 -1.483,0.247 -1.599609,-1.6269531 -1.599609,-1.6269531 0,-10e-8 0.45925,1.2462812 1.40625,0.7382812 0.948,-0.506 0.881328,-1.4497656 0.861328,-1.7597656 -0.021,-0.311 -0.195313,-0.1875 -0.195313,-0.1875 h -0.0039 c -0.028,0.01 -0.154156,0.093625 -0.660156,0.640625 -0.621,0.67 -0.933594,0.5917969 -0.933594,0.5917968 0,10e-8 -0.706687,-0.067969 -0.679687,-1.1679687 0.026,-1.097 0.451171,-1.5605469 0.451171,-1.5605469 z m 3.322266,0.9140625 c 0.259785,0.00741 0.477591,0.2119902 0.498047,0.4765625 -0.022,0.762 0.90625,1.4247813 0.90625,1.4257813 -1.608,-0.039 -1.908203,-1.2304688 -1.908203,-1.2304688 -0.101949,-0.3170236 0.119038,-0.6457418 0.451172,-0.6699219 0.01764,-0.00129 0.03542,-0.00245 0.05273,-0.00195 z" /><path
     id="path45"
     d="m 7.857068,6.7600847 c 0,2.2972584 1.86227,4.1595303 4.159452,4.1595303 v 0 c 2.297253,0 4.159459,-1.8622719 4.159459,-4.1595303 v 0 c 0,-2.2971838 -1.862206,-4.1593831 -4.159459,-4.1593831 v 0 c -2.297182,0 -4.159452,1.8621993 -4.159452,4.1593831"
     style="fill:url(#linearGradient45);stroke:none;stroke-width:0.06834" /><path
     d="m 14.352,4.064 c -0.08267,0 -0.17,0.008 -0.262,0.024 -1.481,0.247 -1.42,1.973 -1.42,1.973 0,0 0,0.763 0.713,1.15 0.594,0.34 0.934,-0.03 0.992,-0.088 0.058,-0.058 1.264,-1.564 1.07,1.3 0,0 0.424,-0.462 0.451,-1.562 0.027,-1.1 -0.681,-1.168 -0.681,-1.168 0,0 -0.313,-0.079 -0.934,0.592 -0.503,0.545 -0.628,0.627 -0.656,0.639 l -0.004,0.002 h -0.002 c 0,0 -0.175,0.123 -0.195,-0.188 -0.02,-0.31 -0.09,-1.252 0.86,-1.761 0.944,-0.51 1.405,0.738 1.405,0.738 0,0 -0.103,-1.65 -1.337,-1.65 M 11.678,4.78 c -0.05853,0.00222 -0.116756,0.00958 -0.174,0.022 -0.364,0.077 -0.612,0.36 -0.553,0.633 0.058,0.272 0.4,0.428 0.764,0.35 0.362,-0.079 0.607,-0.362 0.549,-0.634 -0.05,-0.222 -0.29,-0.372 -0.586,-0.369 z M 8.555,4.995 c 0,0 -0.425,0.463 -0.451,1.56 -0.027,1.1 0.68,1.167 0.68,1.167 0,0 0.312,0.078 0.933,-0.592 0.506,-0.547 0.632,-0.63 0.66,-0.64 h 0.004 c 0,0 0.174,-0.124 0.195,0.187 0.02,0.31 0.087,1.255 -0.861,1.761 C 8.768,8.946 8.309,7.7 8.309,7.7 c 0,0 0.117,1.874 1.6,1.627 1.48,-0.247 1.42,-1.972 1.42,-1.972 0,0 0,-0.765 -0.714,-1.15 C 10.022,5.865 9.682,6.233 9.623,6.292 9.563,6.351 8.363,7.856 8.555,4.995 m 3.27,0.916 c -0.332134,0.02418 -0.553949,0.3529764 -0.452,0.67 0,0 0.3,1.19 1.908,1.229 0,-10e-4 -0.928,-0.664 -0.906,-1.426 -0.02182,-0.2822105 -0.267703,-0.4936672 -0.55,-0.473"
     style="fill:#ffffff;fill-opacity:1;stroke-width:0.0597892"
     id="path46" /></svg>
